<svg width="33" height="26" viewBox="0 0 33 26" fill="none" xmlns="http://www.w3.org/2000/svg">
<path d="M16.9137 12.4775C17.2037 12.7675 17.2037 13.2379 16.9137 13.5298L13.0055 17.4399L4.65373 25.7898C4.36368 26.0798 3.89329 26.0798 3.60139 25.7898L0.217533 22.4078C-0.0725111 22.1178 -0.0725111 21.6455 0.217533 21.3555L8.04316 13.5317C8.3332 13.2416 8.3332 12.7713 8.04316 12.4794L0.217533 4.65373C-0.0725111 4.36368 -0.0725111 3.89329 0.217533 3.60139L3.60139 0.217533C3.89143 -0.0725111 4.36368 -0.0725111 4.65373 0.217533L16.9137 12.4775Z" fill="#8A2BE2"/>
<path d="M32.2582 19.7063H14.915C14.5042 19.7063 14.1713 20.0393 14.1713 20.45V25.2339C14.1713 25.6446 14.5042 25.9776 14.915 25.9776H32.2582C32.6689 25.9776 33.0019 25.6446 33.0019 25.2339V20.45C33.0019 20.0393 32.6689 19.7063 32.2582 19.7063Z" fill="#8A2BE2"/>
</svg>
