<svg width="108" height="77" viewBox="0 0 108 77" fill="none" xmlns="http://www.w3.org/2000/svg">
<path d="M19.6068 61.3632C19.943 61.6984 19.943 62.2421 19.6068 62.5794L15.0763 67.0983L5.39472 76.7486C5.05849 77.0838 4.5132 77.0838 4.17482 76.7486L0.254326 72.8399C-0.0819015 72.5047 -0.0819015 71.9589 0.254326 71.6237L9.32599 62.5816C9.66222 62.2464 9.66222 61.7027 9.32599 61.3653L0.25217 52.3189C-0.0840567 51.9837 -0.0840567 51.4401 0.25217 51.1027L4.17266 47.1919C4.50889 46.8567 5.05634 46.8567 5.39256 47.1919L19.6046 61.3611L19.6068 61.3632Z" fill="white"/>
<path d="M37.3945 69.7156H17.2898C16.8137 69.7156 16.4277 70.1004 16.4277 70.5751V76.104C16.4277 76.5787 16.8137 76.9635 17.2898 76.9635H37.3945C37.8706 76.9635 38.2566 76.5787 38.2566 76.104V70.5751C38.2566 70.1004 37.8706 69.7156 37.3945 69.7156Z" fill="white"/>
<path d="M106.875 0H100.909C100.433 0 100.047 0.38482 100.047 0.859519V3.7518C100.047 4.2265 100.433 4.61132 100.909 4.61132H106.875C107.351 4.61132 107.737 4.2265 107.737 3.7518V0.859519C107.737 0.38482 107.351 0 106.875 0Z" fill="white"/>
<path d="M106.875 8.59304H100.909C100.433 8.59304 100.047 8.97786 100.047 9.45256V40.2771C100.047 40.7518 100.433 41.1366 100.909 41.1366H106.875C107.351 41.1366 107.737 40.7518 107.737 40.2771V9.45256C107.737 8.97786 107.351 8.59304 106.875 8.59304Z" fill="white"/>
<path d="M47.6235 8.77999C39.1532 8.22345 31.9631 14.1778 30.5967 22.1133V22.1176C30.4393 23.0093 30.3596 23.929 30.3596 24.8659C30.3596 25.8028 30.4393 26.7224 30.5967 27.6163V27.6206C31.9071 35.2123 38.5411 40.9883 46.5308 40.9883C55.8374 40.9883 63.312 33.1473 62.6611 23.727C62.1115 15.7571 55.6219 9.30644 47.6257 8.78214L47.6235 8.77999ZM47.4059 33.431C41.9486 33.966 37.4009 29.4321 37.9376 23.9913C38.3342 19.9623 41.6016 16.7026 45.6407 16.2986C51.1087 15.7528 55.6671 20.2997 55.1197 25.749C54.7145 29.778 51.4449 33.0335 47.4037 33.4288L47.4059 33.431Z" fill="white"/>
<path d="M27.4241 36.4393C24.3398 39.4218 20.0659 41.1881 15.3824 40.9668C7.20948 40.58 0.637967 34.2067 0.0452593 26.0714C-0.646592 16.6231 6.84092 8.74346 16.1691 8.74346C20.3633 8.74346 24.1868 10.3379 27.0598 12.9487C27.4197 13.2753 27.4241 13.8404 27.0792 14.1842L22.9626 18.2884C22.6458 18.6043 22.1371 18.6279 21.7966 18.3357C20.1111 16.8917 17.8588 16.0816 15.419 16.2879C11.3498 16.6295 8.03927 19.8313 7.58666 23.8774C7.00688 29.0754 11.0718 33.4761 16.1669 33.4761C18.4731 33.4761 20.5702 32.5758 22.1177 31.106C22.4539 30.7858 22.9863 30.7966 23.316 31.1253L27.4241 35.2209C27.7624 35.5583 27.7646 36.1105 27.4197 36.4415L27.4241 36.4393Z" fill="white"/>
<path d="M89.8502 0.859519V10.1789C89.8502 10.6623 89.3351 10.9761 88.9062 10.7504C86.5181 9.49339 83.7744 8.81437 80.8648 8.90247C72.3362 9.16032 65.4091 16.1117 65.2043 24.6166C64.9845 33.7039 72.3082 41.1366 81.3691 41.1366C84.4814 41.1366 87.3846 40.2599 89.8502 38.7428C94.4647 35.9043 97.5382 30.8181 97.5382 25.0163V0.859519C97.5382 0.384635 97.1524 0 96.6761 0H90.7123C90.236 0 89.8502 0.384635 89.8502 0.859519ZM82.0135 33.431C76.5563 33.966 72.0086 29.4321 72.5453 23.9913C72.9462 19.9365 76.1835 16.7048 80.2505 16.2986C85.7164 15.755 90.277 20.2997 89.7295 25.749C89.3222 29.8038 86.0806 33.0313 82.0135 33.431Z" fill="white"/>
<path d="M92.887 44.7551C83.1257 44.1363 75.0756 52.1578 75.692 61.8897C76.2007 69.9133 82.7312 76.4241 90.7791 76.9312C100.536 77.5458 108.578 69.5286 107.966 59.801C107.459 51.7774 100.933 45.2666 92.8849 44.7551H92.887ZM92.7189 69.6705C87.2531 70.2163 82.6924 65.6694 83.2399 60.22C83.6429 56.191 86.9147 52.9356 90.9559 52.5402C96.4131 52.0052 100.961 56.5392 100.424 61.9799C100.028 66.0089 96.7601 69.2686 92.7211 69.6726L92.7189 69.6705Z" fill="white"/>
<path d="M73.1272 60.8432C73.1272 62.9769 72.7113 65.014 71.9547 66.8792C69.4675 73.0183 63.2969 77.2815 56.1736 76.9463C47.9943 76.5616 41.4141 70.169 40.8322 62.025C40.1576 52.5875 47.6365 44.7229 56.9582 44.7229C61.3162 44.7229 65.2712 46.442 68.1765 49.2354C68.5214 49.5663 68.5192 50.1185 68.1808 50.4559L63.9349 54.689C63.6116 55.0114 63.0921 55.0264 62.7516 54.7213C61.0015 53.1419 58.5962 52.2673 55.9904 52.5488C51.9535 52.9872 48.8176 56.1115 48.3757 60.1384C47.8067 65.3256 51.8695 69.7156 56.9582 69.7156C58.8764 69.7156 60.6502 69.0924 62.0835 68.0374C62.5813 67.6721 62.3098 66.8792 61.6912 66.8792H58.5595C58.0832 66.8792 57.6974 66.4945 57.6974 66.0196V60.3748C57.6974 59.8999 58.0832 59.5152 58.5595 59.5152H72.2586C72.722 59.5152 73.1057 59.8784 73.1208 60.3382C73.1251 60.5058 73.1294 60.6734 73.1294 60.8432H73.1272Z" fill="white"/>
<path d="M56.4107 0.7134V3.87213C56.4107 4.22668 56.1241 4.51462 55.7684 4.51677L41.5564 4.60487C40.7848 4.60917 40.6555 3.50469 41.4077 3.33278L55.6197 0.0838022C56.0249 -0.00859609 56.4107 0.298682 56.4107 0.711251V0.7134Z" fill="white"/>
</svg>
